# xmcd
#
# Track frame offsets:
#	150
#	14927
#	33729
#	47882
#	68169
#	81187
#	94666
#	112651
#	148586
#	165194
#	185249
#	198343
#	215680
#
# Disc length: 3057 seconds
#
# Revision: 1
# Processed by: cddbd v1.5.2PL0 Copyright (c) Steve Scherf et al.
# Submitted via: audiograbber 1.83.01
#
DISCID=ba0bef0d
DTITLE=Johnny Winter - Step Back
DYEAR=2014
DGENRE=Blues
TTITLE0=Unchain My Heart
TTITLE1=Can't Hold Out (Talk to Me Baby)
TTITLE2=Don't Want No Woman
TTITLE3=Killing Floor
TTITLE4=Who Do You Love
TTITLE5=Okie Dokie Stomp
TTITLE6=Where Can You Be
TTITLE7=Sweet Sixteen
TTITLE8=Death Letter
TTITLE9=My Babe
TTITLE10=Long Tall Sally
TTITLE11=Mojo Hand
TTITLE12=Blue Monday
EXTD=
EXTT0=
EXTT1=
EXTT2=
EXTT3=
EXTT4=
EXTT5=
EXTT6=
EXTT7=
EXTT8=
EXTT9=
EXTT10=
EXTT11=
EXTT12=
PLAYORDER=
